<?xml version="1.0" encoding="UTF-8" standalone="no"?>
<!-- Generator: Adobe Illustrator 18.0.0, SVG Export Plug-In . SVG Version: 6.00 Build 0)  -->

<svg
   xmlns:dc="http://purl.org/dc/elements/1.1/"
   xmlns:cc="http://creativecommons.org/ns#"
   xmlns:rdf="http://www.w3.org/1999/02/22-rdf-syntax-ns#"
   xmlns:svg="http://www.w3.org/2000/svg"
   xmlns="http://www.w3.org/2000/svg"
   xmlns:sodipodi="http://sodipodi.sourceforge.net/DTD/sodipodi-0.dtd"
   xmlns:inkscape="http://www.inkscape.org/namespaces/inkscape"
   version="1.1"
   id="Capa_1"
   x="0px"
   y="0px"
   viewBox="0 0 162.577 162.577"
   style="enable-background:new 0 0 162.577 162.577;"
   xml:space="preserve"
   sodipodi:docname="cat.svg"
   inkscape:version="0.92.4 5da689c313, 2019-01-14"
   inkscape:export-filename="/home/zoron/下载/cat.svg.png"
   inkscape:export-xdpi="299.979"
   inkscape:export-ydpi="299.979"><metadata
   id="metadata43"><rdf:RDF><cc:Work
       rdf:about=""><dc:format>image/svg+xml</dc:format><dc:type
         rdf:resource="http://purl.org/dc/dcmitype/StillImage" /></cc:Work></rdf:RDF></metadata><defs
   id="defs41" /><sodipodi:namedview
   pagecolor="#ffffff"
   bordercolor="#666666"
   borderopacity="1"
   objecttolerance="10"
   gridtolerance="10"
   guidetolerance="10"
   inkscape:pageopacity="0"
   inkscape:pageshadow="2"
   inkscape:window-width="640"
   inkscape:window-height="480"
   id="namedview39"
   showgrid="false"
   inkscape:zoom="1.4516199"
   inkscape:cx="-153.24827"
   inkscape:cy="15.46844"
   inkscape:current-layer="Capa_1" />

<g
   id="g8">
</g>
<g
   id="g10">
</g>
<g
   id="g12">
</g>
<g
   id="g14">
</g>
<g
   id="g16">
</g>
<g
   id="g18">
</g>
<g
   id="g20">
</g>
<g
   id="g22">
</g>
<g
   id="g24">
</g>
<g
   id="g26">
</g>
<g
   id="g28">
</g>
<g
   id="g30">
</g>
<g
   id="g32">
</g>
<g
   id="g34">
</g>
<g
   id="g36">
</g>
<g
   id="g2902"
   transform="translate(0,8.5955814)"><path
     style="stroke-width:6.67152691"
     id="path957"
     d="m 119.38624,16.358255 -11.10142,11.101421 c -2.30168,2.301676 -6.84499,4.176376 -10.100696,4.176376 h -10.98133 c -3.249036,0 -8.579583,0 -11.82862,0 H 64.392846 c -3.249033,0 -7.799014,-1.881371 -10.100691,-4.176376 L 43.197406,16.358255 c -2.308348,-2.308348 -4.183047,-1.521108 -4.183047,1.741269 v 51.424127 c 0,3.249034 2.18826,7.432081 4.863543,9.280094 l 32.537033,22.469705 c 2.675277,1.84801 7.065145,1.84801 9.740422,0 L 118.69239,78.803745 c 2.68196,-1.841342 4.87023,-6.024388 4.87023,-9.280094 V 18.092852 c 0.007,-3.249033 -1.88137,-4.042945 -4.17638,-1.734597 z"
     inkscape:connector-curvature="0" /><g
     transform="matrix(1.1316309,0,0,1.1316309,-15.333605,-17.158432)"
     id="g2893"><g
       id="g2219"
       transform="translate(-26.661987,13.213697)"
       style="fill:#dbe2e3"><rect
         y="47.617699"
         x="90.359955"
         height="14.61347"
         width="14.61347"
         id="rect2213"
         style="opacity:1;fill:#dbe2e3;fill-opacity:1;stroke:none;stroke-width:3.64724398;stroke-linecap:round;stroke-linejoin:round;stroke-miterlimit:4;stroke-dasharray:none;stroke-opacity:1" /><rect
         style="opacity:1;fill:#dbe2e3;fill-opacity:1;stroke:none;stroke-width:3.64724398;stroke-linecap:round;stroke-linejoin:round;stroke-miterlimit:4;stroke-dasharray:none;stroke-opacity:1"
         id="rect2215"
         width="14.61347"
         height="14.61347"
         x="119.09978"
         y="47.617699" /></g><path
       style="stroke-width:5.89549732"
       id="path2884"
       d="m 26.682077,98.954194 c 4.096978,2.940946 15.863519,-0.602556 18.039343,1.242296 2.175824,1.84485 -5.693821,18.14034 -2.513272,21.20108 3.18055,3.06073 19.22308,-10.93565 21.915017,-9.01033 2.691937,1.92532 0.524123,11.97824 3.943893,17.66929 0.430885,0.71706 0.817125,0.0902 1.727514,-1.42992 L 80.120174,111.3858 c 0.698195,-2.78716 -1.33471,-3.98344 -3.694335,-5.62294 L 47.732788,85.821258 C 45.376604,84.174169 44.909632,83.095712 42.503919,84.6736 L 27.888928,96.509636 c -1.1677,0.945669 -1.680628,2.104466 -1.206851,2.444558 z"
       inkscape:connector-curvature="0"
       sodipodi:nodetypes="szzzssccccss" /><path
       sodipodi:nodetypes="szzzssccccss"
       inkscape:connector-curvature="0"
       d="m 144.08403,98.954194 c -4.09698,2.940946 -15.86352,-0.602556 -18.03934,1.242296 -2.17583,1.84485 5.69382,18.14034 2.51327,21.20108 -3.18055,3.06073 -19.22308,-10.93565 -21.91502,-9.01033 -2.69194,1.92532 -0.52412,11.97824 -3.94389,17.66929 -0.43089,0.71706 -0.81713,0.0902 -1.72752,-1.42992 L 90.645932,111.3858 c -0.698195,-2.78716 1.33471,-3.98344 3.694335,-5.62294 L 123.03332,85.821258 c 2.35618,-1.647089 2.82315,-2.725546 5.22887,-1.147658 l 14.61499,11.836036 c 1.1677,0.945669 1.68063,2.104466 1.20685,2.444558 z"
       id="path2886"
       style="stroke-width:5.89549732" /></g></g></svg>